<mxfile host="app.diagrams.net" agent="Mozilla/5.0 (Macintosh; Intel Mac OS X 10_15_7) AppleWebKit/605.1.15 (KHTML, like Gecko) Version/17.6 Safari/605.1.15" version="24.8.3">
  <diagram name="Page-1" id="d9vEPVE4u_vr90gWowEe">
    <mxGraphModel dx="985" dy="869" grid="1" gridSize="10" guides="1" tooltips="1" connect="1" arrows="1" fold="1" page="1" pageScale="1" pageWidth="827" pageHeight="1169" math="0" shadow="0">
      <root>
        <mxCell id="0" />
        <mxCell id="1" parent="0" />
        <mxCell id="8q3B2vJ4E4FiSpnzrV7H-6" style="edgeStyle=orthogonalEdgeStyle;rounded=0;orthogonalLoop=1;jettySize=auto;html=1;" edge="1" parent="1" source="8q3B2vJ4E4FiSpnzrV7H-4" target="8q3B2vJ4E4FiSpnzrV7H-5">
          <mxGeometry relative="1" as="geometry" />
        </mxCell>
        <mxCell id="8q3B2vJ4E4FiSpnzrV7H-4" value="Swimmer" style="shape=umlActor;html=1;verticalLabelPosition=bottom;verticalAlign=top;align=center;" vertex="1" parent="1">
          <mxGeometry x="150" y="270" width="30" height="60" as="geometry" />
        </mxCell>
        <mxCell id="8q3B2vJ4E4FiSpnzrV7H-5" value="Swim in the pool" style="shape=ellipse;html=1;strokeWidth=3;fontStyle=1;whiteSpace=wrap;align=center;perimeter=ellipsePerimeter;" vertex="1" parent="1">
          <mxGeometry x="294" y="270" width="120" height="60" as="geometry" />
        </mxCell>
        <mxCell id="8q3B2vJ4E4FiSpnzrV7H-7" value="Swimmer use cases" style="text;html=1;align=center;verticalAlign=middle;whiteSpace=wrap;rounded=0;fontStyle=1" vertex="1" parent="1">
          <mxGeometry x="294" y="20" width="130" height="30" as="geometry" />
        </mxCell>
        <mxCell id="8q3B2vJ4E4FiSpnzrV7H-14" value="Pool owner" style="shape=umlActor;html=1;verticalLabelPosition=bottom;verticalAlign=top;align=center;" vertex="1" parent="1">
          <mxGeometry x="414" y="450" width="30" height="60" as="geometry" />
        </mxCell>
        <mxCell id="8q3B2vJ4E4FiSpnzrV7H-16" style="edgeStyle=orthogonalEdgeStyle;rounded=0;orthogonalLoop=1;jettySize=auto;html=1;entryX=0;entryY=1;entryDx=0;entryDy=0;" edge="1" parent="1" source="8q3B2vJ4E4FiSpnzrV7H-15" target="8q3B2vJ4E4FiSpnzrV7H-5">
          <mxGeometry relative="1" as="geometry" />
        </mxCell>
        <mxCell id="8q3B2vJ4E4FiSpnzrV7H-15" value="Other swimmers" style="shape=umlActor;html=1;verticalLabelPosition=bottom;verticalAlign=top;align=center;" vertex="1" parent="1">
          <mxGeometry x="230" y="450" width="30" height="60" as="geometry" />
        </mxCell>
        <mxCell id="8q3B2vJ4E4FiSpnzrV7H-17" style="edgeStyle=orthogonalEdgeStyle;rounded=0;orthogonalLoop=1;jettySize=auto;html=1;entryX=0.783;entryY=0.983;entryDx=0;entryDy=0;entryPerimeter=0;" edge="1" parent="1" source="8q3B2vJ4E4FiSpnzrV7H-14" target="8q3B2vJ4E4FiSpnzrV7H-5">
          <mxGeometry relative="1" as="geometry" />
        </mxCell>
      </root>
    </mxGraphModel>
  </diagram>
</mxfile>
